<?xml version="1.0" encoding="utf-8"?>
<svg xmlns="http://www.w3.org/2000/svg" xmlns:xlink="http://www.w3.org/1999/xlink" width="600" height="400" viewBox="0 0 2400 1600">
<defs>
  <clipPath id="clip440">
    <rect x="0" y="0" width="2400" height="1600"/>
  </clipPath>
</defs>
<path clip-path="url(#clip440)" d="
M0 1600 L2400 1600 L2400 0 L0 0  Z
  " fill="#ffffff" fill-rule="evenodd" fill-opacity="1"/>
<defs>
  <clipPath id="clip441">
    <rect x="480" y="0" width="1681" height="1600"/>
  </clipPath>
</defs>
<path clip-path="url(#clip440)" d="
M219.195 1410.9 L2352.76 1410.9 L2352.76 47.2441 L219.195 47.2441  Z
  " fill="#ffffff" fill-rule="evenodd" fill-opacity="1"/>
<defs>
  <clipPath id="clip442">
    <rect x="219" y="47" width="2135" height="1365"/>
  </clipPath>
</defs>
<polyline clip-path="url(#clip442)" style="stroke:#000000; stroke-linecap:butt; stroke-linejoin:round; stroke-width:2; stroke-opacity:0.1; fill:none" points="
  279.579,1410.9 279.579,47.2441 
  "/>
<polyline clip-path="url(#clip442)" style="stroke:#000000; stroke-linecap:butt; stroke-linejoin:round; stroke-width:2; stroke-opacity:0.1; fill:none" points="
  1621.44,1410.9 1621.44,47.2441 
  "/>
<polyline clip-path="url(#clip440)" style="stroke:#000000; stroke-linecap:butt; stroke-linejoin:round; stroke-width:4; stroke-opacity:1; fill:none" points="
  219.195,1410.9 2352.76,1410.9 
  "/>
<polyline clip-path="url(#clip440)" style="stroke:#000000; stroke-linecap:butt; stroke-linejoin:round; stroke-width:4; stroke-opacity:1; fill:none" points="
  279.579,1410.9 279.579,1392 
  "/>
<polyline clip-path="url(#clip440)" style="stroke:#000000; stroke-linecap:butt; stroke-linejoin:round; stroke-width:4; stroke-opacity:1; fill:none" points="
  1621.44,1410.9 1621.44,1392 
  "/>
<path clip-path="url(#clip440)" d="M244.562 1485.02 L252.2 1485.02 L252.2 1458.66 L243.89 1460.32 L243.89 1456.06 L252.154 1454.4 L256.83 1454.4 L256.83 1485.02 L264.469 1485.02 L264.469 1488.96 L244.562 1488.96 L244.562 1485.02 Z" fill="#000000" fill-rule="evenodd" fill-opacity="1" /><path clip-path="url(#clip440)" d="M283.913 1457.48 Q280.302 1457.48 278.473 1461.04 Q276.668 1464.58 276.668 1471.71 Q276.668 1478.82 278.473 1482.38 Q280.302 1485.92 283.913 1485.92 Q287.547 1485.92 289.353 1482.38 Q291.182 1478.82 291.182 1471.71 Q291.182 1464.58 289.353 1461.04 Q287.547 1457.48 283.913 1457.48 M283.913 1453.77 Q289.723 1453.77 292.779 1458.38 Q295.858 1462.96 295.858 1471.71 Q295.858 1480.44 292.779 1485.04 Q289.723 1489.63 283.913 1489.63 Q278.103 1489.63 275.024 1485.04 Q271.969 1480.44 271.969 1471.71 Q271.969 1462.96 275.024 1458.38 Q278.103 1453.77 283.913 1453.77 Z" fill="#000000" fill-rule="evenodd" fill-opacity="1" /><path clip-path="url(#clip440)" d="M305.562 1435.97 Q302.628 1435.97 301.143 1438.86 Q299.676 1441.74 299.676 1447.53 Q299.676 1453.31 301.143 1456.2 Q302.628 1459.08 305.562 1459.08 Q308.515 1459.08 309.982 1456.2 Q311.468 1453.31 311.468 1447.53 Q311.468 1441.74 309.982 1438.86 Q308.515 1435.97 305.562 1435.97 M305.562 1432.96 Q310.283 1432.96 312.766 1436.7 Q315.267 1440.43 315.267 1447.53 Q315.267 1454.62 312.766 1458.37 Q310.283 1462.09 305.562 1462.09 Q300.842 1462.09 298.34 1458.37 Q295.858 1454.62 295.858 1447.53 Q295.858 1440.43 298.34 1436.7 Q300.842 1432.96 305.562 1432.96 Z" fill="#000000" fill-rule="evenodd" fill-opacity="1" /><path clip-path="url(#clip440)" d="M1587.21 1485.02 L1594.85 1485.02 L1594.85 1458.66 L1586.54 1460.32 L1586.54 1456.06 L1594.81 1454.4 L1599.48 1454.4 L1599.48 1485.02 L1607.12 1485.02 L1607.12 1488.96 L1587.21 1488.96 L1587.21 1485.02 Z" fill="#000000" fill-rule="evenodd" fill-opacity="1" /><path clip-path="url(#clip440)" d="M1626.57 1457.48 Q1622.95 1457.48 1621.13 1461.04 Q1619.32 1464.58 1619.32 1471.71 Q1619.32 1478.82 1621.13 1482.38 Q1622.95 1485.92 1626.57 1485.92 Q1630.2 1485.92 1632.01 1482.38 Q1633.83 1478.82 1633.83 1471.71 Q1633.83 1464.58 1632.01 1461.04 Q1630.2 1457.48 1626.57 1457.48 M1626.57 1453.77 Q1632.38 1453.77 1635.43 1458.38 Q1638.51 1462.96 1638.51 1471.71 Q1638.51 1480.44 1635.43 1485.04 Q1632.38 1489.63 1626.57 1489.63 Q1620.76 1489.63 1617.68 1485.04 Q1614.62 1480.44 1614.62 1471.71 Q1614.62 1462.96 1617.68 1458.38 Q1620.76 1453.77 1626.57 1453.77 Z" fill="#000000" fill-rule="evenodd" fill-opacity="1" /><path clip-path="url(#clip440)" d="M1643.08 1458.35 L1656.34 1458.35 L1656.34 1461.55 L1638.51 1461.55 L1638.51 1458.35 Q1640.67 1456.11 1644.4 1452.35 Q1648.14 1448.57 1649.1 1447.48 Q1650.92 1445.43 1651.64 1444.02 Q1652.37 1442.59 1652.37 1441.22 Q1652.37 1438.98 1650.79 1437.57 Q1649.23 1436.16 1646.71 1436.16 Q1644.92 1436.16 1642.93 1436.78 Q1640.95 1437.4 1638.7 1438.66 L1638.7 1434.82 Q1640.99 1433.9 1642.99 1433.43 Q1644.98 1432.96 1646.63 1432.96 Q1651 1432.96 1653.59 1435.14 Q1656.19 1437.32 1656.19 1440.97 Q1656.19 1442.7 1655.53 1444.26 Q1654.89 1445.8 1653.18 1447.91 Q1652.71 1448.46 1650.19 1451.07 Q1647.67 1453.67 1643.08 1458.35 Z" fill="#000000" fill-rule="evenodd" fill-opacity="1" /><path clip-path="url(#clip440)" d="M1300.9 1552.67 L1300.9 1574.19 L1295.05 1574.19 L1295.05 1552.86 Q1295.05 1547.8 1293.07 1545.29 Q1291.1 1542.77 1287.15 1542.77 Q1282.41 1542.77 1279.67 1545.79 Q1276.94 1548.82 1276.94 1554.04 L1276.94 1574.19 L1271.05 1574.19 L1271.05 1538.54 L1276.94 1538.54 L1276.94 1544.08 Q1279.04 1540.86 1281.87 1539.27 Q1284.73 1537.68 1288.46 1537.68 Q1294.6 1537.68 1297.75 1541.5 Q1300.9 1545.29 1300.9 1552.67 Z" fill="#000000" fill-rule="evenodd" fill-opacity="1" /><polyline clip-path="url(#clip442)" style="stroke:#000000; stroke-linecap:butt; stroke-linejoin:round; stroke-width:2; stroke-opacity:0.1; fill:none" points="
  219.195,1217.16 2352.76,1217.16 
  "/>
<polyline clip-path="url(#clip442)" style="stroke:#000000; stroke-linecap:butt; stroke-linejoin:round; stroke-width:2; stroke-opacity:0.1; fill:none" points="
  219.195,914.041 2352.76,914.041 
  "/>
<polyline clip-path="url(#clip442)" style="stroke:#000000; stroke-linecap:butt; stroke-linejoin:round; stroke-width:2; stroke-opacity:0.1; fill:none" points="
  219.195,610.922 2352.76,610.922 
  "/>
<polyline clip-path="url(#clip442)" style="stroke:#000000; stroke-linecap:butt; stroke-linejoin:round; stroke-width:2; stroke-opacity:0.1; fill:none" points="
  219.195,307.803 2352.76,307.803 
  "/>
<polyline clip-path="url(#clip440)" style="stroke:#000000; stroke-linecap:butt; stroke-linejoin:round; stroke-width:4; stroke-opacity:1; fill:none" points="
  219.195,1410.9 219.195,47.2441 
  "/>
<polyline clip-path="url(#clip440)" style="stroke:#000000; stroke-linecap:butt; stroke-linejoin:round; stroke-width:4; stroke-opacity:1; fill:none" points="
  219.195,1217.16 238.093,1217.16 
  "/>
<polyline clip-path="url(#clip440)" style="stroke:#000000; stroke-linecap:butt; stroke-linejoin:round; stroke-width:4; stroke-opacity:1; fill:none" points="
  219.195,914.041 238.093,914.041 
  "/>
<polyline clip-path="url(#clip440)" style="stroke:#000000; stroke-linecap:butt; stroke-linejoin:round; stroke-width:4; stroke-opacity:1; fill:none" points="
  219.195,610.922 238.093,610.922 
  "/>
<polyline clip-path="url(#clip440)" style="stroke:#000000; stroke-linecap:butt; stroke-linejoin:round; stroke-width:4; stroke-opacity:1; fill:none" points="
  219.195,307.803 238.093,307.803 
  "/>
<path clip-path="url(#clip440)" d="M126.205 1202.96 Q122.593 1202.96 120.765 1206.52 Q118.959 1210.07 118.959 1217.19 Q118.959 1224.3 120.765 1227.87 Q122.593 1231.41 126.205 1231.41 Q129.839 1231.41 131.644 1227.87 Q133.473 1224.3 133.473 1217.19 Q133.473 1210.07 131.644 1206.52 Q129.839 1202.96 126.205 1202.96 M126.205 1199.25 Q132.015 1199.25 135.07 1203.86 Q138.149 1208.44 138.149 1217.19 Q138.149 1225.92 135.07 1230.53 Q132.015 1235.11 126.205 1235.11 Q120.394 1235.11 117.316 1230.53 Q114.26 1225.92 114.26 1217.19 Q114.26 1208.44 117.316 1203.86 Q120.394 1199.25 126.205 1199.25 Z" fill="#000000" fill-rule="evenodd" fill-opacity="1" /><path clip-path="url(#clip440)" d="M146.366 1228.56 L151.251 1228.56 L151.251 1234.44 L146.366 1234.44 L146.366 1228.56 Z" fill="#000000" fill-rule="evenodd" fill-opacity="1" /><path clip-path="url(#clip440)" d="M161.575 1233.72 L161.575 1229.46 Q163.334 1230.3 165.14 1230.74 Q166.945 1231.18 168.681 1231.18 Q173.311 1231.18 175.741 1228.07 Q178.195 1224.95 178.542 1218.61 Q177.2 1220.6 175.139 1221.66 Q173.079 1222.73 170.579 1222.73 Q165.394 1222.73 162.362 1219.6 Q159.353 1216.45 159.353 1211.01 Q159.353 1205.69 162.501 1202.47 Q165.649 1199.25 170.88 1199.25 Q176.876 1199.25 180.024 1203.86 Q183.195 1208.44 183.195 1217.19 Q183.195 1225.37 179.306 1230.25 Q175.44 1235.11 168.889 1235.11 Q167.13 1235.11 165.325 1234.76 Q163.519 1234.42 161.575 1233.72 M170.88 1219.07 Q174.028 1219.07 175.857 1216.92 Q177.709 1214.76 177.709 1211.01 Q177.709 1207.29 175.857 1205.13 Q174.028 1202.96 170.88 1202.96 Q167.732 1202.96 165.88 1205.13 Q164.052 1207.29 164.052 1211.01 Q164.052 1214.76 165.88 1216.92 Q167.732 1219.07 170.88 1219.07 Z" fill="#000000" fill-rule="evenodd" fill-opacity="1" /><path clip-path="url(#clip440)" d="M116.83 927.386 L124.468 927.386 L124.468 901.02 L116.158 902.687 L116.158 898.427 L124.422 896.761 L129.098 896.761 L129.098 927.386 L136.737 927.386 L136.737 931.321 L116.83 931.321 L116.83 927.386 Z" fill="#000000" fill-rule="evenodd" fill-opacity="1" /><path clip-path="url(#clip440)" d="M146.181 925.441 L151.066 925.441 L151.066 931.321 L146.181 931.321 L146.181 925.441 Z" fill="#000000" fill-rule="evenodd" fill-opacity="1" /><path clip-path="url(#clip440)" d="M171.251 899.839 Q167.64 899.839 165.811 903.404 Q164.005 906.946 164.005 914.075 Q164.005 921.182 165.811 924.747 Q167.64 928.288 171.251 928.288 Q174.885 928.288 176.69 924.747 Q178.519 921.182 178.519 914.075 Q178.519 906.946 176.69 903.404 Q174.885 899.839 171.251 899.839 M171.251 896.136 Q177.061 896.136 180.116 900.742 Q183.195 905.326 183.195 914.075 Q183.195 922.802 180.116 927.409 Q177.061 931.992 171.251 931.992 Q165.44 931.992 162.362 927.409 Q159.306 922.802 159.306 914.075 Q159.306 905.326 162.362 900.742 Q165.44 896.136 171.251 896.136 Z" fill="#000000" fill-rule="evenodd" fill-opacity="1" /><path clip-path="url(#clip440)" d="M118.056 624.266 L125.695 624.266 L125.695 597.901 L117.385 599.568 L117.385 595.308 L125.649 593.642 L130.325 593.642 L130.325 624.266 L137.964 624.266 L137.964 628.202 L118.056 628.202 L118.056 624.266 Z" fill="#000000" fill-rule="evenodd" fill-opacity="1" /><path clip-path="url(#clip440)" d="M147.408 622.322 L152.292 622.322 L152.292 628.202 L147.408 628.202 L147.408 622.322 Z" fill="#000000" fill-rule="evenodd" fill-opacity="1" /><path clip-path="url(#clip440)" d="M163.288 624.266 L170.927 624.266 L170.927 597.901 L162.616 599.568 L162.616 595.308 L170.88 593.642 L175.556 593.642 L175.556 624.266 L183.195 624.266 L183.195 628.202 L163.288 628.202 L163.288 624.266 Z" fill="#000000" fill-rule="evenodd" fill-opacity="1" /><path clip-path="url(#clip440)" d="M118.427 321.147 L126.066 321.147 L126.066 294.782 L117.756 296.448 L117.756 292.189 L126.019 290.523 L130.695 290.523 L130.695 321.147 L138.334 321.147 L138.334 325.083 L118.427 325.083 L118.427 321.147 Z" fill="#000000" fill-rule="evenodd" fill-opacity="1" /><path clip-path="url(#clip440)" d="M147.778 319.203 L152.663 319.203 L152.663 325.083 L147.778 325.083 L147.778 319.203 Z" fill="#000000" fill-rule="evenodd" fill-opacity="1" /><path clip-path="url(#clip440)" d="M166.876 321.147 L183.195 321.147 L183.195 325.083 L161.251 325.083 L161.251 321.147 Q163.913 318.393 168.496 313.763 Q173.102 309.11 174.283 307.768 Q176.528 305.245 177.408 303.509 Q178.311 301.749 178.311 300.059 Q178.311 297.305 176.366 295.569 Q174.445 293.833 171.343 293.833 Q169.144 293.833 166.69 294.597 Q164.26 295.36 161.482 296.911 L161.482 292.189 Q164.306 291.055 166.76 290.476 Q169.214 289.898 171.251 289.898 Q176.621 289.898 179.815 292.583 Q183.01 295.268 183.01 299.759 Q183.01 301.888 182.2 303.809 Q181.413 305.708 179.306 308.3 Q178.727 308.971 175.626 312.189 Q172.524 315.383 166.876 321.147 Z" fill="#000000" fill-rule="evenodd" fill-opacity="1" /><path clip-path="url(#clip440)" d="M28.3562 993.39 L28.3562 987.534 L64.0042 987.534 L64.0042 993.39 L28.3562 993.39 M14.479 993.39 L14.479 987.534 L21.895 987.534 L21.895 993.39 L14.479 993.39 Z" fill="#000000" fill-rule="evenodd" fill-opacity="1" /><path clip-path="url(#clip440)" d="M42.4881 945.648 L64.0042 945.648 L64.0042 951.504 L42.679 951.504 Q37.6183 951.504 35.1038 953.477 Q32.5894 955.451 32.5894 959.398 Q32.5894 964.14 35.6131 966.877 Q38.6368 969.615 43.8567 969.615 L64.0042 969.615 L64.0042 975.503 L28.3562 975.503 L28.3562 969.615 L33.8944 969.615 Q30.6797 967.514 29.0883 964.681 Q27.4968 961.817 27.4968 958.093 Q27.4968 951.95 31.3163 948.799 Q35.1038 945.648 42.4881 945.648 Z" fill="#000000" fill-rule="evenodd" fill-opacity="1" /><path clip-path="url(#clip440)" d="M18.2347 928.174 L28.3562 928.174 L28.3562 916.111 L32.9077 916.111 L32.9077 928.174 L52.2594 928.174 Q56.6199 928.174 57.8613 926.996 Q59.1026 925.787 59.1026 922.126 L59.1026 916.111 L64.0042 916.111 L64.0042 922.126 Q64.0042 928.906 61.4897 931.484 Q58.9434 934.062 52.2594 934.062 L32.9077 934.062 L32.9077 938.359 L28.3562 938.359 L28.3562 934.062 L18.2347 934.062 L18.2347 928.174 Z" fill="#000000" fill-rule="evenodd" fill-opacity="1" /><path clip-path="url(#clip440)" d="M44.7161 877.917 L47.5806 877.917 L47.5806 904.843 Q53.6281 904.462 56.8109 901.215 Q59.9619 897.937 59.9619 892.112 Q59.9619 888.738 59.1344 885.587 Q58.3069 882.404 56.6518 879.285 L62.1899 879.285 Q63.5267 882.436 64.227 885.746 Q64.9272 889.056 64.9272 892.462 Q64.9272 900.992 59.9619 905.989 Q54.9967 910.955 46.5303 910.955 Q37.7774 910.955 32.6531 906.244 Q27.4968 901.501 27.4968 893.481 Q27.4968 886.287 32.1438 882.118 Q36.7589 877.917 44.7161 877.917 M42.9973 883.773 Q38.1912 883.837 35.3266 886.478 Q32.4621 889.088 32.4621 893.417 Q32.4621 898.319 35.2312 901.279 Q38.0002 904.207 43.0292 904.652 L42.9973 883.773 Z" fill="#000000" fill-rule="evenodd" fill-opacity="1" /><path clip-path="url(#clip440)" d="M45.7664 844.847 Q39.4007 844.847 35.8996 847.488 Q32.3984 850.098 32.3984 854.841 Q32.3984 859.551 35.8996 862.193 Q39.4007 864.803 45.7664 864.803 Q52.1003 864.803 55.6014 862.193 Q59.1026 859.551 59.1026 854.841 Q59.1026 850.098 55.6014 847.488 Q52.1003 844.847 45.7664 844.847 M59.58 838.99 Q68.683 838.99 73.1071 843.032 Q77.5631 847.075 77.5631 855.414 Q77.5631 858.501 77.0857 861.238 Q76.6401 863.976 75.6852 866.554 L69.9879 866.554 Q71.3884 863.976 72.0568 861.461 Q72.7252 858.947 72.7252 856.337 Q72.7252 850.576 69.7015 847.711 Q66.7096 844.847 60.6303 844.847 L57.7339 844.847 Q60.885 846.661 62.4446 849.494 Q64.0042 852.326 64.0042 856.273 Q64.0042 862.83 59.0071 866.84 Q54.01 870.851 45.7664 870.851 Q37.491 870.851 32.4939 866.84 Q27.4968 862.83 27.4968 856.273 Q27.4968 852.326 29.0564 849.494 Q30.616 846.661 33.7671 844.847 L28.3562 844.847 L28.3562 838.99 L59.58 838.99 Z" fill="#000000" fill-rule="evenodd" fill-opacity="1" /><path clip-path="url(#clip440)" d="M33.8307 806.27 Q33.2578 807.257 33.0032 808.435 Q32.7167 809.581 32.7167 810.981 Q32.7167 815.946 35.9632 818.62 Q39.1779 821.262 45.2253 821.262 L64.0042 821.262 L64.0042 827.15 L28.3562 827.15 L28.3562 821.262 L33.8944 821.262 Q30.6479 819.416 29.0883 816.456 Q27.4968 813.496 27.4968 809.262 Q27.4968 808.658 27.5923 807.926 Q27.656 807.194 27.8151 806.302 L33.8307 806.27 Z" fill="#000000" fill-rule="evenodd" fill-opacity="1" /><path clip-path="url(#clip440)" d="M46.0847 783.927 Q46.0847 791.025 47.7079 793.762 Q49.3312 796.499 53.2461 796.499 Q56.3653 796.499 58.2114 794.462 Q60.0256 792.393 60.0256 788.86 Q60.0256 783.991 56.5881 781.062 Q53.1188 778.102 47.3897 778.102 L46.0847 778.102 L46.0847 783.927 M43.6657 772.246 L64.0042 772.246 L64.0042 778.102 L58.5933 778.102 Q61.8398 780.107 63.3994 783.099 Q64.9272 786.091 64.9272 790.42 Q64.9272 795.894 61.8716 799.141 Q58.7843 802.356 53.6281 802.356 Q47.6125 802.356 44.5569 798.345 Q41.5014 794.303 41.5014 786.314 L41.5014 778.102 L40.9285 778.102 Q36.8862 778.102 34.6901 780.776 Q32.4621 783.418 32.4621 788.224 Q32.4621 791.279 33.1941 794.176 Q33.9262 797.072 35.3903 799.746 L29.9795 799.746 Q28.7381 796.531 28.1334 793.507 Q27.4968 790.484 27.4968 787.619 Q27.4968 779.885 31.5072 776.065 Q35.5176 772.246 43.6657 772.246 Z" fill="#000000" fill-rule="evenodd" fill-opacity="1" /><path clip-path="url(#clip440)" d="M18.2347 754.39 L28.3562 754.39 L28.3562 742.327 L32.9077 742.327 L32.9077 754.39 L52.2594 754.39 Q56.6199 754.39 57.8613 753.212 Q59.1026 752.003 59.1026 748.343 L59.1026 742.327 L64.0042 742.327 L64.0042 748.343 Q64.0042 755.122 61.4897 757.7 Q58.9434 760.278 52.2594 760.278 L32.9077 760.278 L32.9077 764.575 L28.3562 764.575 L28.3562 760.278 L18.2347 760.278 L18.2347 754.39 Z" fill="#000000" fill-rule="evenodd" fill-opacity="1" /><path clip-path="url(#clip440)" d="M44.7161 704.133 L47.5806 704.133 L47.5806 731.06 Q53.6281 730.678 56.8109 727.431 Q59.9619 724.153 59.9619 718.328 Q59.9619 714.954 59.1344 711.803 Q58.3069 708.621 56.6518 705.501 L62.1899 705.501 Q63.5267 708.652 64.227 711.963 Q64.9272 715.273 64.9272 718.678 Q64.9272 727.208 59.9619 732.205 Q54.9967 737.171 46.5303 737.171 Q37.7774 737.171 32.6531 732.46 Q27.4968 727.718 27.4968 719.697 Q27.4968 712.504 32.1438 708.334 Q36.7589 704.133 44.7161 704.133 M42.9973 709.989 Q38.1912 710.053 35.3266 712.695 Q32.4621 715.305 32.4621 719.633 Q32.4621 724.535 35.2312 727.495 Q38.0002 730.423 43.0292 730.869 L42.9973 709.989 Z" fill="#000000" fill-rule="evenodd" fill-opacity="1" /><path clip-path="url(#clip440)" d="M33.8307 653.143 Q33.2578 654.13 33.0032 655.308 Q32.7167 656.454 32.7167 657.854 Q32.7167 662.819 35.9632 665.493 Q39.1779 668.135 45.2253 668.135 L64.0042 668.135 L64.0042 674.023 L28.3562 674.023 L28.3562 668.135 L33.8944 668.135 Q30.6479 666.289 29.0883 663.329 Q27.4968 660.368 27.4968 656.135 Q27.4968 655.531 27.5923 654.798 Q27.656 654.066 27.8151 653.175 L33.8307 653.143 Z" fill="#000000" fill-rule="evenodd" fill-opacity="1" /><path clip-path="url(#clip440)" d="M44.7161 617.941 L47.5806 617.941 L47.5806 644.868 Q53.6281 644.486 56.8109 641.24 Q59.9619 637.961 59.9619 632.137 Q59.9619 628.763 59.1344 625.612 Q58.3069 622.429 56.6518 619.31 L62.1899 619.31 Q63.5267 622.461 64.227 625.771 Q64.9272 629.081 64.9272 632.487 Q64.9272 641.017 59.9619 646.014 Q54.9967 650.979 46.5303 650.979 Q37.7774 650.979 32.6531 646.268 Q27.4968 641.526 27.4968 633.505 Q27.4968 626.312 32.1438 622.142 Q36.7589 617.941 44.7161 617.941 M42.9973 623.797 Q38.1912 623.861 35.3266 626.503 Q32.4621 629.113 32.4621 633.442 Q32.4621 638.343 35.2312 641.303 Q38.0002 644.231 43.0292 644.677 L42.9973 623.797 Z" fill="#000000" fill-rule="evenodd" fill-opacity="1" /><path clip-path="url(#clip440)" d="M29.4065 585.603 L34.9447 585.603 Q33.6716 588.086 33.035 590.759 Q32.3984 593.433 32.3984 596.298 Q32.3984 600.658 33.7352 602.854 Q35.072 605.019 37.7456 605.019 Q39.7826 605.019 40.9603 603.459 Q42.1061 601.899 43.1565 597.189 L43.6021 595.184 Q44.9389 588.945 47.3897 586.335 Q49.8086 583.694 54.1691 583.694 Q59.1344 583.694 62.0308 587.64 Q64.9272 591.555 64.9272 598.43 Q64.9272 601.295 64.3543 604.414 Q63.8132 607.501 62.6992 610.939 L56.6518 610.939 Q58.3387 607.692 59.198 604.541 Q60.0256 601.39 60.0256 598.303 Q60.0256 594.165 58.6251 591.937 Q57.1929 589.709 54.6147 589.709 Q52.2276 589.709 50.9545 591.332 Q49.6813 592.924 48.5037 598.366 L48.0262 600.404 Q46.8804 605.846 44.5251 608.265 Q42.138 610.684 38.0002 610.684 Q32.9713 610.684 30.2341 607.119 Q27.4968 603.555 27.4968 596.998 Q27.4968 593.751 27.9743 590.887 Q28.4517 588.022 29.4065 585.603 Z" fill="#000000" fill-rule="evenodd" fill-opacity="1" /><path clip-path="url(#clip440)" d="M49.9359 574.973 L28.3562 574.973 L28.3562 569.116 L49.7131 569.116 Q54.7739 569.116 57.3202 567.143 Q59.8346 565.169 59.8346 561.223 Q59.8346 556.48 56.8109 553.743 Q53.7872 550.974 48.5673 550.974 L28.3562 550.974 L28.3562 545.117 L64.0042 545.117 L64.0042 550.974 L58.5296 550.974 Q61.7762 553.106 63.3676 555.939 Q64.9272 558.74 64.9272 562.464 Q64.9272 568.607 61.1078 571.79 Q57.2883 574.973 49.9359 574.973 M27.4968 560.236 L27.4968 560.236 Z" fill="#000000" fill-rule="evenodd" fill-opacity="1" /><path clip-path="url(#clip440)" d="M14.479 533.054 L14.479 527.198 L64.0042 527.198 L64.0042 533.054 L14.479 533.054 Z" fill="#000000" fill-rule="evenodd" fill-opacity="1" /><path clip-path="url(#clip440)" d="M18.2347 509.151 L28.3562 509.151 L28.3562 497.088 L32.9077 497.088 L32.9077 509.151 L52.2594 509.151 Q56.6199 509.151 57.8613 507.973 Q59.1026 506.764 59.1026 503.104 L59.1026 497.088 L64.0042 497.088 L64.0042 503.104 Q64.0042 509.883 61.4897 512.461 Q58.9434 515.039 52.2594 515.039 L32.9077 515.039 L32.9077 519.336 L28.3562 519.336 L28.3562 515.039 L18.2347 515.039 L18.2347 509.151 Z" fill="#000000" fill-rule="evenodd" fill-opacity="1" /><path clip-path="url(#clip440)" d="M29.4065 466.66 L34.9447 466.66 Q33.6716 469.143 33.035 471.816 Q32.3984 474.49 32.3984 477.354 Q32.3984 481.715 33.7352 483.911 Q35.072 486.075 37.7456 486.075 Q39.7826 486.075 40.9603 484.516 Q42.1061 482.956 43.1565 478.246 L43.6021 476.24 Q44.9389 470.002 47.3897 467.392 Q49.8086 464.75 54.1691 464.75 Q59.1344 464.75 62.0308 468.697 Q64.9272 472.612 64.9272 479.487 Q64.9272 482.351 64.3543 485.471 Q63.8132 488.558 62.6992 491.996 L56.6518 491.996 Q58.3387 488.749 59.198 485.598 Q60.0256 482.447 60.0256 479.36 Q60.0256 475.222 58.6251 472.994 Q57.1929 470.766 54.6147 470.766 Q52.2276 470.766 50.9545 472.389 Q49.6813 473.981 48.5037 479.423 L48.0262 481.46 Q46.8804 486.903 44.5251 489.322 Q42.138 491.741 38.0002 491.741 Q32.9713 491.741 30.2341 488.176 Q27.4968 484.611 27.4968 478.055 Q27.4968 474.808 27.9743 471.944 Q28.4517 469.079 29.4065 466.66 Z" fill="#000000" fill-rule="evenodd" fill-opacity="1" /><polyline clip-path="url(#clip442)" style="stroke:#009af9; stroke-linecap:butt; stroke-linejoin:round; stroke-width:4; stroke-opacity:1; fill:none" points="
  279.579,85.838 481.549,85.838 599.694,1372.3 683.52,1372.3 748.539,600.424 801.665,600.424 846.581,1151.77 885.49,1151.77 919.81,722.944 950.51,722.944 
  978.282,1073.8 1003.64,1073.8 1026.96,776.922 1048.55,776.922 1068.65,1034.21 1087.46,1034.21 1105.13,807.192 1121.78,807.192 1137.53,1010.32 1152.48,1010.32 
  1166.7,826.537 1180.25,826.537 1193.2,994.337 1205.61,994.337 1217.5,839.961 1228.93,839.961 1239.93,982.901 1250.52,982.901 1260.75,849.819 1270.63,849.819 
  1280.18,974.315 1289.43,974.315 1298.4,857.364 1307.1,857.364 1315.54,967.633 1323.75,967.633 1331.73,863.325 1339.5,863.325 1347.07,962.283 1354.45,962.283 
  1361.65,868.152 1368.67,868.152 1375.52,957.905 1382.22,957.905 1388.77,872.141 1395.17,872.141 1401.44,954.256 1407.58,954.256 1413.58,875.493 1419.47,875.493 
  1425.24,951.167 1430.9,951.167 1436.45,878.348 1441.9,878.348 1447.24,948.519 1452.49,948.519 1457.65,880.81 1462.72,880.81 1467.7,946.224 1472.6,946.224 
  1477.41,882.955 1482.15,882.955 1486.81,944.215 1491.4,944.215 1495.92,884.84 1500.37,884.84 1504.75,942.443 1509.07,942.443 1513.32,886.51 1517.51,886.51 
  1521.65,940.867 1525.72,940.867 1529.74,887.999 1533.7,887.999 1537.62,939.457 1541.48,939.457 1545.28,889.335 1549.04,889.335 1552.76,938.189 1556.42,938.189 
  1560.04,890.542 1563.62,890.542 1567.15,937.04 1570.64,937.04 1574.09,891.636 1577.49,891.636 1580.86,935.997 1584.19,935.997 1587.49,892.633 1590.74,892.633 
  1593.96,935.044 1597.15,935.044 1600.3,893.545 1603.41,893.545 1606.5,934.17 1609.55,934.17 1612.57,894.382 1615.55,894.382 1618.51,933.366 1621.44,933.366 
  1624.34,895.154 1627.21,895.154 1630.05,932.624 1632.87,932.624 1635.66,895.868 1638.42,895.868 1641.16,931.937 1643.87,931.937 1646.55,896.53 1649.21,896.53 
  1651.85,931.299 1654.46,931.299 1657.05,897.145 1659.62,897.145 1662.17,930.705 1664.69,930.705 1667.19,897.719 1669.67,897.719 1672.13,930.151 1674.57,930.151 
  1676.98,898.255 1679.38,898.255 1681.76,929.632 1684.12,929.632 1686.46,898.757 1688.78,898.757 1691.09,929.146 1693.37,929.146 1695.64,899.228 1697.89,899.228 
  1700.12,928.689 1702.34,928.689 1704.54,899.671 1706.72,899.671 1708.89,928.259 1711.04,928.259 1713.17,900.089 1715.29,900.089 1717.39,927.854 1719.48,927.854 
  1721.56,900.482 1723.62,900.482 1725.66,927.471 1727.69,927.471 1729.71,900.855 1731.71,900.855 1733.7,927.109 1735.67,927.109 1737.64,901.207 1739.59,901.207 
  1741.52,926.766 1743.45,926.766 1745.36,901.541 1747.25,901.541 1749.14,926.44 1751.01,926.44 1752.88,901.858 1754.73,901.858 1756.56,926.131 1758.39,926.131 
  1760.21,902.16 1762.01,902.16 1763.8,925.837 1765.59,925.837 1767.36,902.447 1769.12,902.447 1770.87,925.557 1772.61,925.557 1774.34,902.72 1776.06,902.72 
  1777.77,925.29 1779.46,925.29 1781.15,902.981 1782.83,902.981 1784.5,925.035 1786.16,925.035 1787.81,903.23 1789.46,903.23 1791.09,924.791 1792.71,924.791 
  1794.33,903.469 1795.93,903.469 1797.53,924.558 1799.12,924.558 1800.69,903.697 1802.27,903.697 1803.83,924.335 1805.38,924.335 1806.93,903.915 1808.47,903.915 
  1810,924.121 1811.52,924.121 1813.03,904.124 1814.54,904.124 1816.03,923.916 1817.52,923.916 1819.01,904.325 1820.48,904.325 1821.95,923.719 1823.41,923.719 
  1824.86,904.518 1826.31,904.518 1827.75,923.53 1829.18,923.53 1830.61,904.704 1832.02,904.704 1833.44,923.348 1834.84,923.348 1836.24,904.882 1837.63,904.882 
  1839.01,923.173 1840.39,923.173 1841.76,905.054 1843.13,905.054 1844.48,923.005 1845.84,923.005 1847.18,905.219 1848.52,905.219 1849.86,922.842 1851.18,922.842 
  1852.5,905.379 1853.82,905.379 1855.13,922.686 1856.43,922.686 1857.73,905.533 1859.02,905.533 1860.31,922.534 1861.59,922.534 1862.87,905.681 1864.14,905.681 
  1865.4,922.389 1866.66,922.389 1867.91,905.825 1869.16,905.825 1870.4,922.248 1871.64,922.248 1872.87,905.963 1874.1,905.963 1875.32,922.111 1876.54,922.111 
  1877.75,906.097 1878.95,906.097 1880.16,921.979 1881.35,921.979 1882.54,906.227 1883.73,906.227 1884.91,921.852 1886.09,921.852 1887.26,906.352 1888.43,906.352 
  1889.59,921.728 1890.75,921.728 1891.91,906.474 1893.06,906.474 1894.2,921.609 1895.34,921.609 1896.48,906.592 1897.61,906.592 1898.74,921.493 1899.86,921.493 
  1900.98,906.706 1902.09,906.706 1903.2,921.38 1904.31,921.38 1905.41,906.817 1906.51,906.817 1907.6,921.271 1908.69,921.271 1909.78,906.924 1910.86,906.924 
  1911.93,921.165 1913.01,921.165 1914.08,907.029 1915.14,907.029 1916.2,921.063 1917.26,921.063 1918.31,907.13 1919.36,907.13 1920.41,920.963 1921.45,920.963 
  1922.49,907.228 1923.53,907.228 1924.56,920.866 1925.59,920.866 1926.61,907.324 1927.63,907.324 1928.65,920.771 1929.66,920.771 1930.67,907.417 1931.68,907.417 
  1932.68,920.68 1933.68,920.68 1934.68,907.508 1935.67,907.508 1936.66,920.59 1937.65,920.59 1938.63,907.596 1939.61,907.596 1940.58,920.503 1941.56,920.503 
  1942.53,907.681 1943.49,907.681 1944.46,920.419 1945.42,920.419 1946.37,907.765 1947.33,907.765 1948.28,920.336 1949.22,920.336 1950.17,907.846 1951.11,907.846 
  1952.05,920.256 1952.98,920.256 1953.92,907.926 1954.85,907.926 1955.77,920.178 1956.7,920.178 1957.62,908.003 1958.53,908.003 1959.45,920.101 1960.36,920.101 
  1961.27,908.078 1962.18,908.078 1963.08,920.027 1963.98,920.027 1964.88,908.152 1965.77,908.152 1966.67,919.954 1967.56,919.954 1968.44,908.224 1969.33,908.224 
  1970.21,919.883 1971.09,919.883 1971.97,908.294 1972.84,908.294 1973.71,919.814 1974.58,919.814 1975.44,908.362 1976.31,908.362 1977.17,919.747 1978.03,919.747 
  1978.88,908.429 1979.74,908.429 1980.59,919.681 1981.43,919.681 1982.28,908.494 1983.12,908.494 1983.96,919.616 1984.8,919.616 1985.64,908.558 1986.47,908.558 
  1987.3,919.553 1988.13,919.553 1988.96,908.62 1989.78,908.62 1990.61,919.491 1991.43,919.491 1992.24,908.681 1993.06,908.681 1993.87,919.431 1994.68,919.431 
  1995.49,908.741 1996.3,908.741 1997.1,919.372 1997.9,919.372 1998.7,908.799 1999.5,908.799 2000.29,919.315 2001.09,919.315 2001.88,908.856 2002.67,908.856 
  2003.45,919.258 2004.24,919.258 2005.02,908.912 2005.8,908.912 2006.58,919.203 2007.35,919.203 2008.13,908.966 2008.9,908.966 2009.67,919.149 2010.44,919.149 
  2011.2,909.02 2011.97,909.02 2012.73,919.096 2013.49,919.096 2014.24,909.072 2015,909.072 2015.75,919.044 2016.51,919.044 2017.26,909.123 2018,909.123 
  2018.75,918.994 2019.5,918.994 2020.24,909.173 2020.98,909.173 2021.72,918.944 2022.45,918.944 2023.19,909.223 2023.92,909.223 2024.65,918.895 2025.38,918.895 
  2026.11,909.271 2026.84,909.271 2027.56,918.847 2028.28,918.847 2029,909.318 2029.72,909.318 2030.44,918.801 2031.15,918.801 2031.87,909.365 2032.58,909.365 
  2033.29,918.755 2033.99,918.755 2034.7,909.41 2035.41,909.41 2036.11,918.71 2036.81,918.71 2037.51,909.455 2038.21,909.455 2038.9,918.666 2039.6,918.666 
  2040.29,909.498 2040.98,909.498 2041.67,918.622 2042.36,918.622 2043.05,909.541 2043.73,909.541 2044.41,918.58 2045.1,918.58 2045.78,909.584 2046.45,909.584 
  2047.13,918.538 2047.81,918.538 2048.48,909.625 2049.15,909.625 2049.82,918.497 2050.49,918.497 2051.16,909.665 2051.83,909.665 2052.49,918.457 2053.15,918.457 
  2053.81,909.705 2054.47,909.705 2055.13,918.417 2055.79,918.417 2056.45,909.744 2057.1,909.744 2057.75,918.378 2058.4,918.378 2059.05,909.783 2059.7,909.783 
  2060.35,918.34 2060.99,918.34 2061.64,909.821 2062.28,909.821 2062.92,918.303 2063.56,918.303 2064.2,909.858 2064.84,909.858 2065.47,918.266 2066.11,918.266 
  2066.74,909.894 2067.37,909.894 2068,918.23 2068.63,918.23 2069.26,909.93 2069.88,909.93 2070.51,918.194 2071.13,918.194 2071.75,909.965 2072.37,909.965 
  2072.99,918.159 2073.61,918.159 2074.23,910 2074.84,910 2075.46,918.125 2076.07,918.125 2076.68,910.034 2077.29,910.034 2077.9,918.091 2078.51,918.091 
  2079.11,910.068 2079.72,910.068 2080.32,918.058 2080.93,918.058 2081.53,910.101 2082.13,910.101 2082.73,918.025 2083.32,918.025 2083.92,910.133 2084.52,910.133 
  2085.11,917.993 2085.7,917.993 2086.29,910.165 2086.88,910.165 2087.47,917.961 2088.06,917.961 2088.65,910.196 2089.23,910.196 2089.82,917.93 2090.4,917.93 
  2090.98,910.227 2091.56,910.227 2092.14,917.9 2092.72,917.9 2093.3,910.258 2093.88,910.258 2094.45,917.87 2095.03,917.87 2095.6,910.287 2096.17,910.287 
  2096.74,917.84 2097.31,917.84 2097.88,910.317 2098.45,910.317 2099.01,917.811 2099.58,917.811 2100.14,910.346 2100.71,910.346 2101.27,917.782 2101.83,917.782 
  2102.39,910.374 2102.95,910.374 2103.51,917.754 2104.06,917.754 2104.62,910.403 2105.17,910.403 2105.73,917.726 2106.28,917.726 2106.83,910.43 2107.38,910.43 
  2107.93,917.698 2108.48,917.698 2109.02,910.458 2109.57,910.458 2110.12,917.671 2110.66,917.671 2111.2,910.484 2111.75,910.484 2112.29,917.644 2112.83,917.644 
  2113.37,910.511 2113.9,910.511 2114.44,917.618 2114.98,917.618 2115.51,910.537 2116.05,910.537 2116.58,917.592 2117.11,917.592 2117.64,910.563 2118.17,910.563 
  2118.7,917.567 2119.23,917.567 2119.76,910.588 2120.28,910.588 2120.81,917.542 2121.33,917.542 2121.86,910.613 2122.38,910.613 2122.9,917.517 2123.42,917.517 
  2123.94,910.638 2124.46,910.638 2124.98,917.492 2125.5,917.492 2126.01,910.662 2126.53,910.662 2127.04,917.468 2127.56,917.468 2128.07,910.686 2128.58,910.686 
  2129.09,917.445 2129.6,917.445 2130.11,910.709 2130.62,910.709 2131.13,917.421 2131.63,917.421 2132.14,910.733 2132.64,910.733 2133.15,917.398 2133.65,917.398 
  2134.15,910.756 2134.65,910.756 2135.15,917.375 2135.65,917.375 2136.15,910.778 2136.65,910.778 2137.14,917.353 2137.64,917.353 2138.14,910.801 2138.63,910.801 
  2139.12,917.331 2139.62,917.331 2140.11,910.823 2140.6,910.823 2141.09,917.309 2141.58,917.309 2142.07,910.844 2142.55,910.844 2143.04,917.287 2143.53,917.287 
  2144.01,910.866 2144.5,910.866 2144.98,917.266 2145.46,917.266 2145.94,910.887 2146.43,910.887 2146.91,917.245 2147.39,917.245 2147.87,910.908 2148.34,910.908 
  2148.82,917.224 2149.3,917.224 2149.77,910.928 2150.25,910.928 2150.72,917.204 2151.2,917.204 2151.67,910.949 2152.14,910.949 2152.61,917.183 2153.08,917.183 
  2153.55,910.969 2154.02,910.969 2154.49,917.163 2154.96,917.163 2155.42,910.989 2155.89,910.989 2156.35,917.144 2156.82,917.144 2157.28,911.008 2157.74,911.008 
  2158.21,917.124 2158.67,917.124 2159.13,911.027 2159.59,911.027 2160.05,917.105 2160.51,917.105 2160.96,911.047 2161.42,911.047 2161.88,917.086 2162.33,917.086 
  2162.79,911.065 2163.24,911.065 2163.69,917.067 2164.15,917.067 2164.6,911.084 2165.05,911.084 2165.5,917.049 2165.95,917.049 2166.4,911.102 2166.85,911.102 
  2167.3,917.031 2167.75,917.031 2168.19,911.121 2168.64,911.121 2169.08,917.013 2169.53,917.013 2169.97,911.139 2170.41,911.139 2170.86,916.995 2171.3,916.995 
  2171.74,911.156 2172.18,911.156 2172.62,916.977 2173.06,916.977 2173.5,911.174 2173.94,911.174 2174.37,916.96 2174.81,916.96 2175.25,911.191 2175.68,911.191 
  2176.11,916.943 2176.55,916.943 2176.98,911.208 2177.41,911.208 2177.85,916.926 2178.28,916.926 2178.71,911.225 2179.14,911.225 2179.57,916.909 2180,916.909 
  2180.43,911.242 2180.85,911.242 2181.28,916.892 2181.71,916.892 2182.13,911.258 2182.56,911.258 2182.98,916.876 2183.41,916.876 2183.83,911.275 2184.25,911.275 
  2184.67,916.86 2185.09,916.86 2185.52,911.291 2185.94,911.291 2186.35,916.844 2186.77,916.844 2187.19,911.307 2187.61,911.307 2188.03,916.828 2188.44,916.828 
  2188.86,911.322 2189.27,911.322 2189.69,916.812 2190.1,916.812 2190.52,911.338 2190.93,911.338 2191.34,916.797 2191.75,916.797 2192.17,911.353 2192.58,911.353 
  2192.99,916.781 2193.4,916.781 2193.81,911.369 2194.21,911.369 2194.62,916.766 2195.03,916.766 2195.44,911.384 2195.84,911.384 2196.25,916.751 2196.65,916.751 
  2197.06,911.398 2197.46,911.398 2197.86,916.736 2198.27,916.736 2198.67,911.413 2199.07,911.413 2199.47,916.722 2199.87,916.722 2200.27,911.428 2200.67,911.428 
  2201.07,916.707 2201.47,916.707 2201.87,911.442 2202.26,911.442 2202.66,916.693 2203.06,916.693 2203.45,911.456 2203.85,911.456 2204.24,916.679 2204.64,916.679 
  2205.03,911.471 2205.42,911.471 2205.81,916.665 2206.21,916.665 2206.6,911.484 2206.99,911.484 2207.38,916.651 2207.77,916.651 2208.16,911.498 2208.55,911.498 
  2208.94,916.637 2209.32,916.637 2209.71,911.512 2210.1,911.512 2210.48,916.623 2210.87,916.623 2211.25,911.525 2211.64,911.525 2212.02,916.61 2212.41,916.61 
  2212.79,911.539 2213.17,911.539 2213.55,916.597 2213.94,916.597 2214.32,911.552 2214.7,911.552 2215.08,916.584 2215.46,916.584 2215.84,911.565 2216.22,911.565 
  2216.59,916.571 2216.97,916.571 2217.35,911.578 2217.72,911.578 2218.1,916.558 2218.48,916.558 2218.85,911.591 2219.23,911.591 2219.6,916.545 2219.98,916.545 
  2220.35,911.604 2220.72,911.604 2221.09,916.532 2221.47,916.532 2221.84,911.616 2222.21,911.616 2222.58,916.52 2222.95,916.52 2223.32,911.629 2223.69,911.629 
  2224.06,916.507 2224.42,916.507 2224.79,911.641 2225.16,911.641 2225.53,916.495 2225.89,916.495 2226.26,911.653 2226.62,911.653 2226.99,916.483 2227.35,916.483 
  2227.72,911.665 2228.08,911.665 2228.44,916.471 2228.81,916.471 2229.17,911.677 2229.53,911.677 2229.89,916.459 2230.25,916.459 2230.61,911.689 2230.97,911.689 
  2231.33,916.447 2231.69,916.447 2232.05,911.701 2232.41,911.701 2232.76,916.436 2233.12,916.436 2233.48,911.712 2233.84,911.712 2234.19,916.424 2234.55,916.424 
  2234.9,911.724 2235.26,911.724 2235.61,916.413 2235.97,916.413 2236.32,911.735 2236.67,911.735 2237.02,916.401 2237.38,916.401 2237.73,911.746 2238.08,911.746 
  2238.43,916.39 2238.78,916.39 2239.13,911.757 2239.48,911.757 2239.83,916.379 2240.18,916.379 2240.53,911.768 2240.87,911.768 2241.22,916.368 2241.57,916.368 
  2241.92,911.779 2242.26,911.779 2242.61,916.357 2242.95,916.357 2243.3,911.79 2243.64,911.79 2243.99,916.347 2244.33,916.347 2244.67,911.801 2245.02,911.801 
  2245.36,916.336 2245.7,916.336 2246.04,911.812 2246.39,911.812 2246.73,916.325 2247.07,916.325 2247.41,911.822 2247.75,911.822 2248.09,916.315 2248.43,916.315 
  2248.76,911.833 2249.1,911.833 2249.44,916.304 2249.78,916.304 2250.11,911.843 2250.45,911.843 2250.79,916.294 2251.12,916.294 2251.46,911.853 2251.79,911.853 
  2252.13,916.284 2252.46,916.284 2252.8,911.863 2253.13,911.863 2253.46,916.274 2253.8,916.274 2254.13,911.873 2254.46,911.873 2254.79,916.264 2255.12,916.264 
  2255.45,911.883 2255.79,911.883 2256.12,916.254 2256.45,916.254 2256.77,911.893 2257.1,911.893 2257.43,916.244 2257.76,916.244 2258.09,911.903 2258.42,911.903 
  2258.74,916.234 2259.07,916.234 2259.4,911.913 2259.72,911.913 2260.05,916.225 2260.37,916.225 2260.7,911.922 2261.02,911.922 2261.35,916.215 2261.67,916.215 
  2262,911.932 2262.32,911.932 2262.64,916.206 2262.96,916.206 2263.29,911.941 2263.61,911.941 2263.93,916.196 2264.25,916.196 2264.57,911.951 2264.89,911.951 
  2265.21,916.187 2265.53,916.187 2265.85,911.96 2266.17,911.96 2266.49,916.178 2266.81,916.178 2267.12,911.969 2267.44,911.969 2267.76,916.168 2268.08,916.168 
  2268.39,911.978 2268.71,911.978 2269.02,916.159 2269.34,916.159 2269.66,911.987 2269.97,911.987 2270.28,916.15 2270.6,916.15 2270.91,911.996 2271.23,911.996 
  2271.54,916.141 2271.85,916.141 2272.16,912.005 2272.48,912.005 2272.79,916.133 2273.1,916.133 2273.41,912.014 2273.72,912.014 2274.03,916.124 2274.34,916.124 
  2274.65,912.023 2274.96,912.023 2275.27,916.115 2275.58,916.115 2275.89,912.031 2276.2,912.031 2276.5,916.106 2276.81,916.106 2277.12,912.04 2277.43,912.04 
  2277.73,916.098 2278.04,916.098 2278.34,912.048 2278.65,912.048 2278.96,916.089 2279.26,916.089 2279.57,912.057 2279.87,912.057 2280.17,916.081 2280.48,916.081 
  2280.78,912.065 2281.08,912.065 2281.39,916.073 2281.69,916.073 2281.99,912.074 2282.29,912.074 2282.59,916.064 2282.9,916.064 2283.2,912.082 2283.5,912.082 
  2283.8,916.056 2284.1,916.056 2284.4,912.09 2284.7,912.09 2284.99,916.048 2285.29,916.048 2285.59,912.098 2285.89,912.098 2286.19,916.04 2286.49,916.04 
  2286.78,912.106 2287.08,912.106 2287.38,916.032 2287.67,916.032 2287.97,912.114 2288.26,912.114 2288.56,916.024 2288.85,916.024 2289.15,912.122 2289.44,912.122 
  2289.74,916.016 2290.03,916.016 2290.33,912.13 2290.62,912.13 2290.91,916.008 2291.2,916.008 2291.5,912.138 2291.79,912.138 2292.08,916.001 2292.37,916.001 
  
  "/>
<polyline clip-path="url(#clip442)" style="stroke:#e26f46; stroke-linecap:butt; stroke-linejoin:round; stroke-width:4; stroke-opacity:1; fill:none" points="
  279.579,914.041 2292.37,914.041 
  "/>
<path clip-path="url(#clip440)" d="
M1915.9 248.219 L2281.64 248.219 L2281.64 92.6992 L1915.9 92.6992  Z
  " fill="#ffffff" fill-rule="evenodd" fill-opacity="1"/>
<polyline clip-path="url(#clip440)" style="stroke:#000000; stroke-linecap:butt; stroke-linejoin:round; stroke-width:4; stroke-opacity:1; fill:none" points="
  1915.9,248.219 2281.64,248.219 2281.64,92.6992 1915.9,92.6992 1915.9,248.219 
  "/>
<polyline clip-path="url(#clip440)" style="stroke:#009af9; stroke-linecap:butt; stroke-linejoin:round; stroke-width:4; stroke-opacity:1; fill:none" points="
  1939.6,144.539 2081.84,144.539 
  "/>
<path clip-path="url(#clip440)" d="M2120.73 139.875 Q2120.01 139.458 2119.16 139.273 Q2118.32 139.065 2117.3 139.065 Q2113.69 139.065 2111.75 141.426 Q2109.83 143.764 2109.83 148.162 L2109.83 161.819 L2105.54 161.819 L2105.54 135.893 L2109.83 135.893 L2109.83 139.921 Q2111.17 137.56 2113.32 136.426 Q2115.48 135.268 2118.55 135.268 Q2118.99 135.268 2119.53 135.338 Q2120.06 135.384 2120.71 135.5 L2120.73 139.875 Z" fill="#000000" fill-rule="evenodd" fill-opacity="1" /><path clip-path="url(#clip440)" d="M2146.33 147.791 L2146.33 149.875 L2126.75 149.875 Q2127.03 154.273 2129.39 156.588 Q2131.77 158.879 2136.01 158.879 Q2138.46 158.879 2140.75 158.278 Q2143.07 157.676 2145.34 156.472 L2145.34 160.5 Q2143.04 161.472 2140.64 161.981 Q2138.23 162.49 2135.75 162.49 Q2129.55 162.49 2125.92 158.879 Q2122.3 155.268 2122.3 149.111 Q2122.3 142.745 2125.73 139.018 Q2129.18 135.268 2135.01 135.268 Q2140.24 135.268 2143.28 138.648 Q2146.33 142.004 2146.33 147.791 M2142.07 146.541 Q2142.03 143.046 2140.1 140.963 Q2138.21 138.879 2135.06 138.879 Q2131.49 138.879 2129.34 140.893 Q2127.21 142.907 2126.89 146.565 L2142.07 146.541 Z" fill="#000000" fill-rule="evenodd" fill-opacity="1" /><path clip-path="url(#clip440)" d="M2169.85 136.657 L2169.85 140.685 Q2168.04 139.759 2166.1 139.296 Q2164.16 138.833 2162.07 138.833 Q2158.9 138.833 2157.3 139.805 Q2155.73 140.778 2155.73 142.722 Q2155.73 144.204 2156.86 145.06 Q2158 145.893 2161.42 146.657 L2162.88 146.981 Q2167.42 147.954 2169.32 149.736 Q2171.24 151.495 2171.24 154.666 Q2171.24 158.278 2168.37 160.384 Q2165.52 162.49 2160.52 162.49 Q2158.44 162.49 2156.17 162.074 Q2153.92 161.68 2151.42 160.87 L2151.42 156.472 Q2153.79 157.699 2156.08 158.324 Q2158.37 158.926 2160.61 158.926 Q2163.62 158.926 2165.24 157.907 Q2166.86 156.866 2166.86 154.991 Q2166.86 153.254 2165.68 152.328 Q2164.53 151.403 2160.57 150.546 L2159.09 150.199 Q2155.13 149.366 2153.37 147.653 Q2151.61 145.916 2151.61 142.907 Q2151.61 139.25 2154.2 137.259 Q2156.79 135.268 2161.56 135.268 Q2163.92 135.268 2166.01 135.616 Q2168.09 135.963 2169.85 136.657 Z" fill="#000000" fill-rule="evenodd" fill-opacity="1" /><path clip-path="url(#clip440)" d="M2177.58 151.588 L2177.58 135.893 L2181.84 135.893 L2181.84 151.426 Q2181.84 155.106 2183.28 156.958 Q2184.71 158.787 2187.58 158.787 Q2191.03 158.787 2193.02 156.588 Q2195.04 154.389 2195.04 150.592 L2195.04 135.893 L2199.29 135.893 L2199.29 161.819 L2195.04 161.819 L2195.04 157.838 Q2193.48 160.199 2191.42 161.356 Q2189.39 162.49 2186.68 162.49 Q2182.21 162.49 2179.9 159.713 Q2177.58 156.935 2177.58 151.588 M2188.3 135.268 L2188.3 135.268 Z" fill="#000000" fill-rule="evenodd" fill-opacity="1" /><path clip-path="url(#clip440)" d="M2208.07 125.801 L2212.33 125.801 L2212.33 161.819 L2208.07 161.819 L2208.07 125.801 Z" fill="#000000" fill-rule="evenodd" fill-opacity="1" /><path clip-path="url(#clip440)" d="M2225.45 128.532 L2225.45 135.893 L2234.22 135.893 L2234.22 139.204 L2225.45 139.204 L2225.45 153.278 Q2225.45 156.449 2226.31 157.352 Q2227.19 158.254 2229.85 158.254 L2234.22 158.254 L2234.22 161.819 L2229.85 161.819 Q2224.92 161.819 2223.04 159.99 Q2221.17 158.139 2221.17 153.278 L2221.17 139.204 L2218.04 139.204 L2218.04 135.893 L2221.17 135.893 L2221.17 128.532 L2225.45 128.532 Z" fill="#000000" fill-rule="evenodd" fill-opacity="1" /><polyline clip-path="url(#clip440)" style="stroke:#e26f46; stroke-linecap:butt; stroke-linejoin:round; stroke-width:4; stroke-opacity:1; fill:none" points="
  1939.6,196.379 2081.84,196.379 
  "/>
<path clip-path="url(#clip440)" d="M2106.22 209.724 L2113.86 209.724 L2113.86 183.358 L2105.54 185.025 L2105.54 180.766 L2113.81 179.099 L2118.48 179.099 L2118.48 209.724 L2126.12 209.724 L2126.12 213.659 L2106.22 213.659 L2106.22 209.724 Z" fill="#000000" fill-rule="evenodd" fill-opacity="1" /></svg>
